# xmcd
#
# Track frame offsets:
#	150
#	13464
#	31014
#	44884
#	58191
#	71459
#	87760
#	101425
#	115266
#	134440
#	148121
#
# Disc length: 2126 seconds
#
# Revision: 0
# Processed by: cddbd v1.5.2PL0 Copyright (c) Steve Scherf et al.
# Submitted via: EasyCDDAExtractor 16.0.6.1
#
DISCID=9f084c0b
DTITLE=Μητροπάνος Δημήτρης-Σαλπέα Πετρή - Άγιος Φεβρουάριος-Δήμ. Μούτσης-Μ. Ελ
DTITLE=ευθερίου
DYEAR=1972
DGENRE=Έντεχνη λαϊκή
TTITLE0=Άνευ ερμηνευτού - Εισαγωγή [ορχήστρα]
TTITLE1=Σαλπέα Πετρή - Άγιος Φεβρουάριος
TTITLE2=Μητροπάνος Δημήτρης - Άλλος για Χίο τράβηξε
TTITLE3=Σαλπέα Πετρή - Το σπίτι στην ανηφοριά
TTITLE4=Μητροπάνος Δημήτρης - Ο Χάρος βγήκε παγανιά
TTITLE5=Μητροπάνος Δημήτρης-Σαλπέα Πετρή - Στη Σμύρνη και το Αϊβαλί
TTITLE6=Μητροπάνος Δημήτρης - Σταμάτης Κομνηνός
TTITLE7=Σαλπέα Πετρή - Κι αν φταίει κανείς
TTITLE8=Σαλπέα Πετρή - Το κομοδίνο
TTITLE9=Μητροπάνος Δημήτρης - Η σούστα πήγαινε μπροστά
TTITLE10=Σαλπέα Πετρή - Άγιος Φεβρουάριος-Φινάλε
EXTD=YEAR: 1972\n
EXTT0=
EXTT1=
EXTT2=
EXTT3=
EXTT4=
EXTT5=
EXTT6=
EXTT7=
EXTT8=
EXTT9=
EXTT10=
PLAYORDER=
